<svg width="152" height="32" viewBox="0 0 152 32" fill="none" xmlns="http://www.w3.org/2000/svg">
<path d="M35.6689 16.8193H4.28623C3.62872 16.8193 3.09179 17.3767 3.15209 18.0346C3.84119 25.8491 11.1112 32.0002 19.9776 32.0002C28.844 32.0002 36.1139 25.852 36.803 18.0346C36.8605 17.3767 36.3264 16.8193 35.6689 16.8193Z" fill="#FF6633"/>
<path fill-rule="evenodd" clip-rule="evenodd" d="M0.225147 3.33137C1.7887 1.27854 4.60645 0 7.711 0C10.8155 0 13.6333 1.27854 15.1969 3.33137C15.5659 3.81589 15.4714 4.50716 14.9858 4.87537C14.5001 5.24357 13.8073 5.14928 13.4383 4.66476C12.3661 3.25707 10.2569 2.20377 7.711 2.20377C5.16509 2.20377 3.05591 3.25707 1.98374 4.66476C1.6147 5.14928 0.921857 5.24357 0.436236 4.87537C-0.0493858 4.50716 -0.143894 3.81589 0.225147 3.33137Z" fill="#414141"/>
<path fill-rule="evenodd" clip-rule="evenodd" d="M24.7671 3.33137C26.3307 1.27854 29.1484 0 32.253 0C35.3552 0 38.1721 1.27884 39.7381 3.33045C40.1077 3.81458 40.0139 4.50596 39.5287 4.87467C39.0434 5.24338 38.3505 5.14981 37.981 4.66568C36.9055 3.25676 34.7955 2.20377 32.253 2.20377C29.7071 2.20377 27.5979 3.25707 26.5257 4.66476C26.1567 5.14928 25.4638 5.24357 24.9782 4.87537C24.4926 4.50716 24.3981 3.81589 24.7671 3.33137Z" fill="#414141"/>
<path d="M57.9525 18.2188C57.7473 18.3702 57.5025 18.4887 57.2245 18.5874C56.9465 18.6862 56.6951 18.7322 56.4634 18.7322C55.7156 18.7322 55.0736 18.4755 54.5508 17.9687C54.0279 17.4553 53.7698 16.83 53.7698 16.0929C53.7698 15.3491 54.0279 14.7238 54.5508 14.2104C55.0736 13.6904 55.7156 13.4337 56.4634 13.4337C56.6951 13.4337 56.9532 13.4864 57.2377 13.5851C57.5223 13.6839 57.7672 13.8155 57.9856 13.98C58.1709 14.1117 58.3827 14.0919 58.482 13.9537L59.4879 12.4859C59.574 12.3609 59.5343 12.1634 59.3754 12.0515C58.9849 11.7685 58.5151 11.5381 57.9657 11.3604C57.4164 11.1761 56.9135 11.084 56.4634 11.084C55.7619 11.084 55.0935 11.2156 54.4647 11.4789C53.836 11.7356 53.2999 12.091 52.8433 12.5386C52.3932 12.9796 52.0358 13.5127 51.7711 14.1314C51.5064 14.7501 51.374 15.4018 51.374 16.0929C51.374 16.784 51.5064 17.4356 51.7711 18.0543C52.0358 18.673 52.3932 19.2061 52.8433 19.6471C53.2999 20.0881 53.836 20.4435 54.4647 20.7068C55.0935 20.9635 55.7619 21.0952 56.4634 21.0952C56.9267 21.0952 57.4297 21.0096 57.9724 20.8319C58.5217 20.6542 58.9717 20.4304 59.3291 20.1605C59.4946 20.0486 59.5674 19.8512 59.4879 19.7261L58.5018 18.2386C58.3959 18.0872 58.1577 18.0806 57.9525 18.2188Z" fill="#414141"/>
<path d="M60.7255 20.5423C60.7255 20.7595 60.8579 20.8845 61.0763 20.8845H67.4298C67.6482 20.8845 67.7872 20.7529 67.7872 20.5423V19.1206C67.7872 18.8507 67.6018 18.673 67.304 18.673H63.1015V17.0341H66.2914C66.5297 17.0341 66.6753 16.9024 66.6753 16.6852V15.4347C66.6753 15.2043 66.5297 15.0727 66.2914 15.0727H63.1015V13.4798H67.304C67.5357 13.4798 67.6548 13.3613 67.6548 13.131V11.6171C67.6548 11.3999 67.5224 11.2683 67.304 11.2683H61.0763C60.8579 11.2683 60.7255 11.3999 60.7255 11.6171V20.5423Z" fill="#414141"/>
<path d="M75.1731 15.7901C75.7224 15.4281 76.0665 14.7501 76.0665 14.0459C76.0665 13.1705 75.7819 12.4859 75.2194 11.9989C74.6568 11.5118 73.8693 11.2683 72.8501 11.2683H69.3755C69.2034 11.2683 69.1174 11.3538 69.1174 11.5184V20.6344C69.1174 20.799 69.2034 20.8845 69.3755 20.8845H73.128C74.1936 20.8845 75.0208 20.6278 75.6099 20.121C76.2055 19.6142 76.5033 18.9034 76.5033 17.9885C76.5033 17.508 76.3842 17.067 76.1459 16.6655C75.9077 16.264 75.5834 15.9744 75.1731 15.7901ZM72.8236 13.4074C73.3464 13.4074 73.6707 13.7168 73.6707 14.217C73.6707 14.7172 73.3464 15.0332 72.8236 15.0332H71.5198V13.4074H72.8236ZM71.5198 18.7454V16.8169H73.0949C73.7104 16.8169 74.1009 17.1789 74.1009 17.7647C74.1009 18.3636 73.7104 18.7454 73.0949 18.7454H71.5198Z" fill="#414141"/>
<path d="M77.6946 20.5423C77.6946 20.7595 77.827 20.8845 78.0454 20.8845H84.3988C84.6172 20.8845 84.7562 20.7529 84.7562 20.5423V19.1206C84.7562 18.8507 84.5709 18.673 84.2731 18.673H80.0705V17.0341H83.2605C83.4988 17.0341 83.6444 16.9024 83.6444 16.6852V15.4347C83.6444 15.2043 83.4988 15.0727 83.2605 15.0727H80.0705V13.4798H84.2731C84.5047 13.4798 84.6238 13.3613 84.6238 13.131V11.6171C84.6238 11.3999 84.4915 11.2683 84.2731 11.2683H78.0454C77.827 11.2683 77.6946 11.3999 77.6946 11.6171V20.5423Z" fill="#414141"/>
<path d="M88.1447 11.2683H87.2844H86.4306C86.2254 11.2683 86.0865 11.4197 86.0865 11.6237V20.5423C86.0865 20.7595 86.2122 20.8911 86.4306 20.8911H88.1249C88.3565 20.8911 88.4889 20.7595 88.4889 20.5423V17.9226H89.6471C90.6795 17.9226 91.5134 17.6199 92.1554 17.0209C92.7973 16.4154 93.1216 15.6124 93.1216 14.6119C93.1216 13.5983 92.7973 12.7887 92.1554 12.1832C91.5134 11.571 90.6795 11.2683 89.6471 11.2683H88.1447ZM88.4889 15.7572V13.4337H89.5478C89.8853 13.4337 90.1699 13.5456 90.3883 13.7694C90.6133 13.9866 90.7258 14.2631 90.7258 14.5988C90.7258 14.9344 90.6133 15.2109 90.3883 15.4281C90.1699 15.6453 89.8853 15.7572 89.5478 15.7572H88.4889Z" fill="#414141"/>
<path d="M100.388 11.2683H97.4301C96.3976 11.2683 95.5571 11.571 94.9151 12.1832C94.2732 12.7887 93.9555 13.5983 93.9555 14.6053C93.9555 15.8098 94.5048 16.8037 95.4512 17.3632L93.757 20.4896C93.6511 20.6805 93.7702 20.8911 93.982 20.8911H95.9608C96.1527 20.8911 96.2388 20.8253 96.3645 20.5949L97.7808 17.8832H98.7669V20.5423C98.7669 20.7595 98.8993 20.8911 99.1309 20.8911H100.825C101.044 20.8911 101.169 20.7595 101.169 20.5423V11.6171C101.169 11.4131 101.03 11.2683 100.825 11.2683H100.388ZM97.5293 15.823C97.1918 15.823 96.9072 15.7045 96.6822 15.4676C96.4638 15.224 96.3513 14.9344 96.3513 14.5922C96.3513 14.2499 96.4638 13.9735 96.6822 13.7563C96.9006 13.5391 97.1852 13.4272 97.5293 13.4272H98.7669V15.823H97.5293Z" fill="#414141"/>
<path d="M109.038 11.2683C108.873 11.2683 108.787 11.3538 108.787 11.525V14.8489H105.167V11.525C105.167 11.3538 105.081 11.2683 104.915 11.2683H103.049C102.877 11.2683 102.791 11.3538 102.791 11.525V20.6344C102.791 20.8055 102.877 20.8911 103.049 20.8911H104.915C105.081 20.8911 105.167 20.8055 105.167 20.6344V17.0143H108.787V20.6344C108.787 20.8055 108.873 20.8911 109.038 20.8911H110.911C111.077 20.8911 111.163 20.8055 111.163 20.6344V11.525C111.163 11.3538 111.077 11.2683 110.911 11.2683H109.038Z" fill="#414141"/>
<path d="M112.341 16.0994C112.341 16.784 112.473 17.4356 112.731 18.0543C112.996 18.6664 113.353 19.1995 113.797 19.6405C114.247 20.0815 114.783 20.437 115.405 20.7002C116.027 20.9569 116.682 21.0886 117.377 21.0886C118.304 21.0886 119.151 20.8714 119.919 20.4304C120.693 19.9894 121.295 19.3838 121.739 18.6203C122.182 17.8568 122.407 17.0143 122.407 16.0994C122.407 15.4083 122.275 14.7567 122.01 14.138C121.752 13.5127 121.395 12.9796 120.945 12.5386C120.501 12.0976 119.965 11.7422 119.343 11.4855C118.727 11.2222 118.072 11.0906 117.377 11.0906C116.682 11.0906 116.027 11.2222 115.405 11.4855C114.783 11.7422 114.247 12.0976 113.797 12.5386C113.353 12.9796 112.996 13.5127 112.731 14.138C112.473 14.7567 112.341 15.4083 112.341 16.0994ZM114.737 16.0994C114.737 15.3623 114.995 14.7436 115.504 14.2367C116.014 13.7299 116.643 13.4732 117.377 13.4732C118.112 13.4732 118.734 13.7299 119.244 14.2367C119.753 14.7436 120.011 15.3623 120.011 16.0994C120.011 16.83 119.753 17.4422 119.244 17.949C118.734 18.4558 118.112 18.7059 117.377 18.7059C116.636 18.7059 116.007 18.4558 115.498 17.949C114.988 17.4422 114.737 16.83 114.737 16.0994Z" fill="#414141"/>
<path d="M129.303 11.2617C129.118 11.2617 128.966 11.4262 128.966 11.6171V14.3289C128.966 14.8225 128.807 15.2175 128.496 15.5136C128.185 15.8098 127.774 15.9612 127.252 15.9612C126.213 15.9612 125.597 15.3491 125.597 14.3157V11.6171C125.597 11.4131 125.438 11.2617 125.226 11.2617H123.526C123.347 11.2617 123.201 11.4262 123.201 11.6171V14.3223C123.201 15.5202 123.559 16.4812 124.273 17.2052C124.988 17.9226 125.915 18.2847 127.053 18.2847C127.794 18.2847 128.489 17.9885 128.966 17.5343V20.5423C128.966 20.7331 129.111 20.8845 129.303 20.8845H131.017C131.209 20.8845 131.362 20.7266 131.362 20.5357V11.6171C131.362 11.4131 131.223 11.2617 131.037 11.2617H129.303Z" fill="#414141"/>
<path d="M138.714 15.8033L141.792 11.7224C141.951 11.5118 141.884 11.288 141.64 11.288H139.462C139.231 11.288 139.105 11.3144 138.953 11.5184L136.444 14.8686H135.379V11.525C135.379 11.3604 135.293 11.2749 135.127 11.2749H133.241C133.069 11.2749 132.983 11.3604 132.983 11.525V20.6278C132.983 20.799 133.069 20.8845 133.241 20.8845H135.127C135.293 20.8845 135.379 20.799 135.379 20.6278V17.1196H136.742L139.178 20.7529C139.264 20.8516 139.383 20.9043 139.522 20.9043H141.719C141.951 20.9043 142.01 20.6739 141.878 20.483L138.714 15.8033Z" fill="#414141"/>
<path d="M148.192 11.5842C148.119 11.3933 147.94 11.2617 147.755 11.2617H146.358C146.173 11.2617 145.994 11.3802 145.908 11.5842L142.374 20.5028C142.288 20.7331 142.387 20.8911 142.632 20.8911H144.505C144.71 20.8911 144.883 20.7595 144.935 20.5752L145.366 19.318H148.721L149.158 20.5818C149.231 20.7661 149.396 20.8977 149.581 20.8977H151.461C151.719 20.8977 151.805 20.7266 151.719 20.5094L148.192 11.5842ZM147.04 14.4145L148.039 17.3303H146.041L147.04 14.4145Z" fill="#414141"/>
</svg>
