<svg width="183" height="183" viewBox="-20 -20 250 250" fill="none" xmlns="http://www.w3.org/2000/svg">
<path d="M13.0369 19.9929L-15.1981 -5.32389C-15.7897 -5.85432 -16.7248 -5.78329 -17.2042 -5.13951C-22.9225 2.48524 -21.3707 13.9142 -13.3936 21.0668C-5.41649 28.2194 6.11103 28.5227 13.0716 22.0072C13.6569 21.4584 13.6285 20.5234 13.0369 19.9929Z" fill="#FF6633"/>
<path d="M159.221 192.796L187.456 218.113C188.047 218.643 188.983 218.572 189.462 217.928C195.18 210.304 193.629 198.875 185.651 191.722C177.674 184.569 166.147 184.266 159.186 190.782C158.601 191.33 158.629 192.265 159.221 192.796Z" fill="#FF6633"/>
<path d="M191.078 69.1119L161.714 45.1137C161.099 44.6109 160.168 44.7247 159.718 45.3897C154.355 53.2682 156.428 64.6141 164.724 71.3942C173.02 78.1743 184.55 77.9497 191.205 71.1224C191.764 70.5474 191.693 69.6147 191.078 69.1119Z" fill="#FF6633"/>
<path d="M0.595684 152.597L27.3043 125.675C27.8639 125.111 27.8401 124.173 27.2213 123.662C19.8946 117.567 8.402 118.54 0.856148 126.146C-6.6897 133.753 -7.57395 145.25 -1.41774 152.53C-0.899146 153.143 0.0360993 153.161 0.595684 152.597Z" fill="#FF6633"/>
<path d="M-5.08273 91.3229C-10.6506 91.9142 -16.1258 83.3391 -17.312 72.1699C-18.4982 61.0007 -14.9462 51.4669 -9.37833 50.8756C-3.8105 50.2843 1.66473 58.8594 2.85093 70.0286C4.03713 81.1978 0.48511 90.7316 -5.08273 91.3229Z" fill="#FCA21C"/>
<path d="M180.571 110.581C186.139 109.99 191.614 118.565 192.8 129.734C193.986 140.903 190.434 150.437 184.867 151.029C179.299 151.62 173.824 143.045 172.637 131.876C171.451 120.706 175.003 111.173 180.571 110.581Z" fill="#FCA21C"/>
<path d="M119.855 4.90633C123.476 7.509 121.097 17.0123 114.541 26.1326C107.985 35.2529 99.7353 40.5364 96.1145 37.9337C92.4938 35.3311 94.8732 25.8278 101.429 16.7075C107.985 7.58721 116.235 2.30366 119.855 4.90633Z" fill="#FCA21C"/>
<path d="M65.9765 159.895C61.5436 159.412 58.9357 149.969 60.1516 138.803C61.3676 127.637 65.9469 118.977 70.3798 119.459C74.8127 119.942 77.4205 129.385 76.2046 140.551C74.9887 151.717 70.4094 160.378 65.9765 159.895Z" fill="#FCA21C"/>
<path fill-rule="evenodd" clip-rule="evenodd" d="M68.3295 64.6266C70.1844 67.2202 69.5838 70.8213 66.9882 72.67C61.1432 76.833 53.2771 78.069 45.827 75.6483C38.3768 73.2277 32.7409 67.6034 30.4589 60.8016C29.4452 57.7804 31.0757 54.5139 34.1007 53.5055C37.1256 52.4972 40.3995 54.1289 41.4131 57.1501C42.49 60.3597 45.2994 63.3519 49.3904 64.6811C53.4828 66.0108 57.5143 65.2415 60.2713 63.2779C62.8669 61.4292 66.4747 62.0331 68.3295 64.6266Z" fill="#70C05B"/>
<path fill-rule="evenodd" clip-rule="evenodd" d="M110.577 135.599C108.722 133.006 109.322 129.404 111.918 127.556C117.763 123.393 125.629 122.157 133.079 124.577C140.529 126.998 146.165 132.622 148.447 139.424C149.461 142.445 147.831 145.712 144.806 146.72C141.781 147.729 138.507 146.097 137.493 143.076C136.416 139.866 133.607 136.874 129.516 135.545C125.423 134.215 121.392 134.984 118.635 136.948C116.039 138.797 112.432 138.193 110.577 135.599Z" fill="#70C05B"/>
<path fill-rule="evenodd" clip-rule="evenodd" d="M168.273 -0.775653C167.763 -3.92321 169.901 -6.8828 173.048 -7.38607C180.134 -8.51938 187.73 -6.13258 193.33 -0.654448C198.929 4.82377 201.48 12.3662 200.503 19.4738C200.069 22.6308 197.157 24.8331 193.999 24.3928C190.841 23.9524 188.633 21.0362 189.067 17.8793C189.528 14.5253 188.34 10.5966 185.265 7.58844C182.19 4.57929 178.236 3.4777 174.894 4.01226C171.747 4.51553 168.783 2.37191 168.273 -0.775653Z" fill="#70C05B"/>
<path fill-rule="evenodd" clip-rule="evenodd" d="M78.7 200.053C80.9545 202.308 80.9517 205.959 78.6938 208.207C73.6093 213.271 66.0519 215.779 58.3059 214.611C50.5599 213.443 44.0791 208.817 40.7141 202.481C39.2195 199.666 40.2931 196.177 43.1121 194.687C45.9311 193.197 49.428 194.27 50.9226 197.085C52.5105 200.075 55.7719 202.567 60.0254 203.208C64.2803 203.85 68.1314 202.431 70.5297 200.042C72.7875 197.793 76.4455 197.798 78.7 200.053Z" fill="#70C05B"/>
<path d="M44.7255 3.95806C43.2224 1.71707 43.8206 -1.3181 46.0616 -2.82118L69.7989 -18.7424C72.0399 -20.2455 75.0751 -19.6473 76.5781 -17.4063L81.2729 -10.4068C82.7759 -8.16583 82.1778 -5.13066 79.9368 -3.62758L56.1994 12.2936C53.9584 13.7967 50.9233 13.1985 49.4202 10.9575L44.7255 3.95806Z" fill="#1CB9FC"/>
<path d="M98.3586 177.491C97.783 174.854 99.4535 172.251 102.09 171.675L130.014 165.579C132.651 165.003 135.254 166.674 135.83 169.31L137.628 177.544C138.203 180.18 136.533 182.784 133.896 183.36L105.972 189.456C103.336 190.032 100.732 188.361 100.156 185.725L98.3586 177.491Z" fill="#1CB9FC"/>
<path d="M126.498 99.1414C124.484 100.938 121.395 100.761 119.599 98.7476L100.573 77.4178C98.7771 75.4041 98.9534 72.3156 100.967 70.5194L107.257 64.9091C109.27 63.113 112.359 63.2893 114.155 65.303L133.181 86.6327C134.977 88.6464 134.801 91.735 132.787 93.5312L126.498 99.1414Z" fill="#1CB9FC"/>
<path d="M-6.34277 173.558C-3.68328 173.101 -1.15725 174.887 -0.700727 177.547L4.13498 205.717C4.59151 208.376 2.80566 210.902 0.146178 211.359L-8.16043 212.785C-10.8199 213.241 -13.3459 211.455 -13.8025 208.796L-18.6382 180.626C-19.0947 177.966 -17.3089 175.44 -14.6494 174.984L-6.34277 173.558Z" fill="#1CB9FC"/>
</svg>
